<svg width="96" height="96" viewBox="0 0 96 96" fill="none" xmlns="http://www.w3.org/2000/svg">
<g clip-path="url(#clip0_161_138)">
<path d="M48 8.652C60.816 8.652 62.336 8.7 67.4 8.932C80.408 9.524 86.484 15.696 87.076 28.608C87.308 33.668 87.352 35.188 87.352 48.004C87.352 60.824 87.304 62.34 87.076 67.4C86.48 80.3 80.42 86.484 67.4 87.076C62.336 87.308 60.824 87.356 48 87.356C35.184 87.356 33.664 87.308 28.604 87.076C15.564 86.48 9.52 80.28 8.928 67.396C8.696 62.336 8.648 60.82 8.648 48C8.648 35.184 8.7 33.668 8.928 28.604C9.524 15.696 15.584 9.52 28.604 8.928C33.668 8.7 35.184 8.652 48 8.652ZM48 0C34.964 0 33.332 0.056 28.212 0.288C10.78 1.088 1.092 10.76 0.292 28.208C0.056 33.332 0 34.964 0 48C0 61.036 0.056 62.672 0.288 67.792C1.088 85.224 10.76 94.912 28.208 95.712C33.332 95.944 34.964 96 48 96C61.036 96 62.672 95.944 67.792 95.712C85.208 94.912 94.92 85.24 95.708 67.792C95.944 62.672 96 61.036 96 48C96 34.964 95.944 33.332 95.712 28.212C94.928 10.796 85.244 1.092 67.796 0.292C62.672 0.056 61.036 0 48 0ZM48 23.352C34.388 23.352 23.352 34.388 23.352 48C23.352 61.612 34.388 72.652 48 72.652C61.612 72.652 72.648 61.616 72.648 48C72.648 34.388 61.612 23.352 48 23.352ZM48 64C39.164 64 32 56.84 32 48C32 39.164 39.164 32 48 32C56.836 32 64 39.164 64 48C64 56.84 56.836 64 48 64ZM73.624 16.62C70.44 16.62 67.86 19.2 67.86 22.38C67.86 25.56 70.44 28.14 73.624 28.14C76.804 28.14 79.38 25.56 79.38 22.38C79.38 19.2 76.804 16.62 73.624 16.62Z" fill="#f9f9f9"/>
</g>
<defs>
<clipPath id="clip0_161_138">
<rect width="96" height="96" fill="white"/>
</clipPath>
</defs>
</svg>
